<?xml version="1.0" encoding="UTF-8"?>
<svg width="81px" height="80px" viewBox="0 0 81 80" version="1.1" xmlns="http://www.w3.org/2000/svg" xmlns:xlink="http://www.w3.org/1999/xlink">
    <title>编组 10</title>
    <g id="网站2-Vela主页" stroke="none" stroke-width="1" fill="none" fill-rule="evenodd">
        <g id="Vela-主页--1600" transform="translate(-303.000000, -2265.000000)">
            <g id="编组-10" transform="translate(303.500000, 2265.000000)">
                <path d="M3,32 L28,32 L27.999,77 L5,77 C3.8954305,77 3,76.1045695 3,75 L3,32 Z M77,32 L77,75 C77,76.1045695 76.1045695,77 75,77 L31.999,77 L32,32 L77,32 Z M75,3 C76.1045695,3 77,3.8954305 77,5 L77,28 L3,28 L3,5 C3,3.8954305 3.8954305,3 5,3 L75,3 Z" id="形状结合" fill="#FFCA00"></path>
                <g id="编组-9" transform="translate(54.754395, 52.020815) rotate(-315.000000) translate(-54.754395, -52.020815) translate(47.754395, 42.020815)" fill="#FFFFFF">
                    <path d="M2,16 L12,16 C13.1045695,16 14,16.8954305 14,18 C14,19.1045695 13.1045695,20 12,20 L2,20 C0.8954305,20 1.3527075e-16,19.1045695 0,18 C-1.3527075e-16,16.8954305 0.8954305,16 2,16 Z" id="矩形备份-11"></path>
                    <path d="M4,8 L20,8 C21.1045695,8 22,8.8954305 22,10 C22,11.1045695 21.1045695,12 20,12 L4,12 C2.8954305,12 2,11.1045695 2,10 C2,8.8954305 2.8954305,8 4,8 Z" id="矩形备份-12" transform="translate(12.000000, 10.000000) rotate(-270.000000) translate(-12.000000, -10.000000) "></path>
                </g>
            </g>
        </g>
    </g>
</svg>