<?xml version="1.0" encoding="UTF-8"?>
<svg width="81px" height="80px" viewBox="0 0 81 80" version="1.1" xmlns="http://www.w3.org/2000/svg" xmlns:xlink="http://www.w3.org/1999/xlink">
    <title>编组 8</title>
    <g id="网站2-Vela主页" stroke="none" stroke-width="1" fill="none" fill-rule="evenodd">
        <g id="Vela-主页--1600" transform="translate(-762.000000, -2265.000000)">
            <g id="编组-8" transform="translate(802.500000, 2305.000000) scale(-1, 1) translate(-802.500000, -2305.000000) translate(762.500000, 2265.000000)">
                <g id="编组-7" transform="translate(1.000000, 2.000000)">
                    <rect id="矩形备份-5" stroke="#CED4F0" stroke-width="3" x="18.5" y="14.5" width="44" height="51" rx="2"></rect>
                    <rect id="矩形" stroke="#6260E1" stroke-width="3" fill="#FFFFFF" x="1.5" y="1.5" width="31" height="22" rx="2"></rect>
                    <rect id="矩形备份-7" stroke="#6260E1" stroke-width="3" fill="#FFFFFF" x="45.5" y="52.5" width="31" height="22" rx="2"></rect>
                    <rect id="矩形" fill="#FFCA00" x="47" y="0" width="31" height="40" rx="2"></rect>
                    <rect id="矩形" fill="#FFFFFF" x="55.5" y="13" width="14" height="14" rx="2"></rect>
                    <rect id="矩形备份-6" fill="#FFCA00" x="0" y="36" width="31" height="40" rx="2"></rect>
                    <circle id="椭圆形" fill="#FFFFFF" cx="15.5" cy="56" r="7"></circle>
                    <path d="M8,7 L26,7 C27.1045695,7 28,7.8954305 28,9 C28,10.1045695 27.1045695,11 26,11 L8,11 C6.8954305,11 6,10.1045695 6,9 C6,7.8954305 6.8954305,7 8,7 Z" id="矩形" fill="#CED4F0"></path>
                    <path d="M52,58 L70,58 C71.1045695,58 72,58.8954305 72,60 C72,61.1045695 71.1045695,62 70,62 L52,62 C50.8954305,62 50,61.1045695 50,60 C50,58.8954305 50.8954305,58 52,58 Z" id="矩形备份-8" fill="#CED4F0"></path>
                    <path d="M8,14 L26,14 C27.1045695,14 28,14.8954305 28,16 C28,17.1045695 27.1045695,18 26,18 L8,18 C6.8954305,18 6,17.1045695 6,16 C6,14.8954305 6.8954305,14 8,14 Z" id="矩形备份-4" fill="#CED4F0"></path>
                    <path d="M52,65 L70,65 C71.1045695,65 72,65.8954305 72,67 C72,68.1045695 71.1045695,69 70,69 L52,69 C50.8954305,69 50,68.1045695 50,67 C50,65.8954305 50.8954305,65 52,65 Z" id="矩形备份-9" fill="#CED4F0"></path>
                </g>
            </g>
        </g>
    </g>
</svg>