<?xml version="1.0" encoding="UTF-8"?>
<svg width="81px" height="80px" viewBox="0 0 81 80" version="1.1" xmlns="http://www.w3.org/2000/svg" xmlns:xlink="http://www.w3.org/1999/xlink">
    <title>编组 26</title>
    <g id="网站2-Vela主页" stroke="none" stroke-width="1" fill="none" fill-rule="evenodd">
        <g id="Vela-主页--1600" transform="translate(-308.000000, -3528.000000)">
            <g id="编组-26" transform="translate(308.500000, 3528.000000)">
                <g id="编组-10备份" opacity="0.300000012">
                    <rect id="矩形" x="0" y="0" width="80" height="80"></rect>
                </g>
                <g id="Symbol-同步" transform="translate(40.000000, 40.000000) scale(-1, 1) translate(-40.000000, -40.000000) translate(1.500000, 10.000000)" fill-rule="nonzero">
                    <path d="M75.1561866,40 L14.2555781,40 C13.5298093,40 12.9411765,39.4147053 12.9411765,38.6930525 L12.9411765,1.30694752 C12.9411765,0.585294662 13.5298093,0 14.2555781,0 L75.1561866,0 C75.8819554,0 76.4705882,0.585294662 76.4705882,1.30694752 L76.4705882,38.6930525 C76.4705882,39.4147053 75.8819554,40 75.1561866,40" id="Fill-1" fill-opacity="0.4" fill="#6260E1"></path>
                    <path d="M65.730926,60 L1.32789749,60 C0.594676762,60 0,59.4221016 0,58.7095681 L0,23.6433731 C0,22.9308395 0.594676762,22.3529412 1.32789749,22.3529412 L65.730926,22.3529412 C66.4641468,22.3529412 67.0588235,22.9308395 67.0588235,23.6433731 L67.0588235,58.7095681 C67.0588235,59.4221016 66.4641468,60 65.730926,60" id="Fill-5" fill="#6260E1"></path>
                    <path d="M65.6470588,17.6470588 L1.41176471,17.6470588 C0.632235294,17.6470588 0,17.0722994 0,16.3636364 L0,11.8716578 C0,11.1629946 0.632235294,10.5882353 1.41176471,10.5882353 L65.6470588,10.5882353 C66.4265882,10.5882353 67.0588235,11.1629946 67.0588235,11.8716578 L67.0588235,16.3636364 C67.0588235,17.0722994 66.4265882,17.6470588 65.6470588,17.6470588" id="Fill-7" fill="#6260E1"></path>
                    <path d="M35.4621849,44.2352941 C34.476173,44.2352941 33.6764706,43.7836975 33.6764706,43.2268907 L33.6764706,30.4201681 C33.6764706,29.8633613 34.476173,29.4117647 35.4621849,29.4117647 L59.3907563,29.4117647 C60.3767683,29.4117647 61.1764706,29.8633613 61.1764706,30.4201681 L61.1764706,43.2268907 C61.1764706,43.7836975 60.3767683,44.2352941 59.3907563,44.2352941 L35.4621849,44.2352941 Z" id="Fill-15" fill="#FFFFFF"></path>
                    <path d="M15.7800512,55.1176471 C15.1869309,55.1176471 14.7058824,54.6816227 14.7058824,54.1440162 L14.7058824,51.3853955 C14.7058824,50.8477891 15.1869309,50.4117647 15.7800512,50.4117647 L60.1023018,50.4117647 C60.695422,50.4117647 61.1764706,50.8477891 61.1764706,51.3853955 L61.1764706,54.1440162 C61.1764706,54.6816227 60.695422,55.1176471 60.1023018,55.1176471 L15.7800512,55.1176471 Z" id="Fill-17" fill="#FFFFFF"></path>
                </g>
            </g>
        </g>
    </g>
</svg>