<?xml version="1.0" encoding="UTF-8"?>
<svg width="81px" height="80px" viewBox="0 0 81 80" version="1.1" xmlns="http://www.w3.org/2000/svg" xmlns:xlink="http://www.w3.org/1999/xlink">
    <title>编组 8备份</title>
    <g id="网站2-Vela主页" stroke="none" stroke-width="1" fill="none" fill-rule="evenodd">
        <g id="Vela-主页--1600" transform="translate(-762.000000, -3528.000000)" fill-rule="nonzero">
            <g id="编组-8备份" transform="translate(762.500000, 3528.000000)">
                <g id="敬请期待" transform="translate(0.000000, 12.500000)">
                    <rect id="Rectangle-4" fill="#A1A0ED" x="55.8808933" y="25.707196" width="21.5980149" height="3.17617866"></rect>
                    <rect id="Rectangle-4备份-3" fill="#A1A0ED" x="55.8808933" y="6.05459057" width="21.5980149" height="3.17617866"></rect>
                    <rect id="Rectangle-4" fill="#A1A0ED" x="6.65012407" y="25.707196" width="21.5980149" height="3.17617866"></rect>
                    <rect id="Rectangle-4备份-4" fill="#A1A0ED" x="6.65012407" y="6.05459057" width="21.5980149" height="3.17617866"></rect>
                    <rect id="Rectangle-4备份" fill="#A1A0ED" x="6.65012407" y="45.3598015" width="21.5980149" height="3.17617866"></rect>
                    <g id="编组-21" transform="translate(65.702233, 47.183623) scale(-1, 1) translate(-65.702233, -47.183623) translate(51.702233, 42.183623)">
                        <rect id="Rectangle-4备份-2" fill="#A1A0ED" x="6.35235732" y="3.17617866" width="21.5980149" height="3.17617866"></rect>
                        <circle id="Oval-2备份-2" fill="#8180E7" cx="4.76426799" cy="4.76426799" r="4.76426799"></circle>
                    </g>
                    <g id="Group" transform="translate(14.590571, 0.297767)">
                        <rect id="Rectangle-2" fill="#6260E1" x="0" y="0" width="50.8188586" height="15.8808933" rx="1.32340778"></rect>
                        <rect id="Rectangle-2" fill="#8180E7" x="0" y="19.057072" width="50.8188586" height="15.8808933" rx="1.32340778"></rect>
                        <rect id="Rectangle-5" fill="#F7F8FC" x="15.8808933" y="25.4094293" width="19.057072" height="3.17617866" rx="1.58808933"></rect>
                        <rect id="Rectangle-5" fill="#F7F8FC" x="15.8808933" y="6.35235732" width="19.057072" height="3.17617866" rx="1.58808933"></rect>
                        <rect id="Rectangle-2" fill="#A1A0ED" x="0" y="38.1141439" width="50.8188586" height="15.8808933" rx="1.32340778"></rect>
                        <rect id="Rectangle-5" fill="#F7F8FC" x="15.8808933" y="44.4665012" width="19.057072" height="3.17617866" rx="1.58808933"></rect>
                    </g>
                    <circle id="Oval-2" fill="#8180E7" cx="74.9379653" cy="27.2952854" r="4.76426799"></circle>
                    <circle id="Oval-2备份-3" fill="#8180E7" cx="74.9379653" cy="7.6426799" r="4.76426799"></circle>
                    <circle id="Oval-2" fill="#8180E7" cx="5.06203474" cy="27.2952854" r="4.76426799"></circle>
                    <circle id="Oval-2备份-4" fill="#8180E7" cx="5.06203474" cy="7.6426799" r="4.76426799"></circle>
                    <circle id="Oval-2备份" fill="#8180E7" cx="5.06203474" cy="46.9478908" r="4.76426799"></circle>
                </g>
            </g>
        </g>
    </g>
</svg>