<?xml version="1.0" encoding="UTF-8"?>
<svg width="81px" height="80px" viewBox="0 0 81 80" version="1.1" xmlns="http://www.w3.org/2000/svg" xmlns:xlink="http://www.w3.org/1999/xlink">
    <title>编组 10备份 3</title>
    <g id="网站2-Vela主页" stroke="none" stroke-width="1" fill="none" fill-rule="evenodd">
        <g id="Vela-主页--1600" transform="translate(-1216.000000, -3528.000000)">
            <g id="编组-10备份-3" transform="translate(1216.500000, 3528.000000)">
                <path d="M28.3240811,32.2153243 L28.324,76 L5.94594595,76 C4.87122968,76 4,75.1287703 4,74.0540541 L4,32.216 L28.3240811,32.2153243 Z M32.2160811,32.2153243 L76,32.216 L76,74.0540541 C76,75.1287703 75.1287703,76 74.0540541,76 L32.216,76 L32.2160811,32.2153243 Z M74.0540541,4 C75.1287703,4 76,4.87122968 76,5.94594595 L76,28.324 L4,28.324 L4,5.94594595 C4,4.87122968 4.87122968,4 5.94594595,4 L74.0540541,4 Z" id="形状结合" fill="#A1A0ED" opacity="0.400000006"></path>
                <path d="M32.2162162,32.2162162 L76,32.2162162 L76,74.0540541 C76,75.1287703 75.1287703,76 74.0540541,76 L32.2162162,76 L32.2162162,76 L32.2162162,32.2162162 Z" id="矩形" fill="#6260E1"></path>
                <path d="M4,32.2162162 L28.3243243,32.2162162 L28.3243243,74.0540541 C28.3243243,75.1287703 27.4530946,76 26.3783784,76 L4,76 L4,76 L4,32.2162162 Z" id="矩形备份-20" fill="#A1A0ED" transform="translate(16.162162, 54.108108) scale(-1, 1) translate(-16.162162, -54.108108) "></path>
            </g>
        </g>
    </g>
</svg>