<?xml version="1.0" encoding="UTF-8"?>
<svg width="81px" height="80px" viewBox="0 0 81 80" version="1.1" xmlns="http://www.w3.org/2000/svg" xmlns:xlink="http://www.w3.org/1999/xlink">
    <title>编组 18</title>
    <g id="网站2-Vela主页" stroke="none" stroke-width="1" fill="none" fill-rule="evenodd">
        <g id="Vela-主页--1600" transform="translate(-308.000000, -3964.000000)">
            <g id="编组-18" transform="translate(308.500000, 3964.000000)">
                <g id="编组-10备份-2"></g>
                <g id="数据填充" transform="translate(3.000000, 3.000000)" fill-rule="nonzero">
                    <path d="M59.0888893,2.5 L59.0888893,58.6440678 L2.94482149,58.6440678 L2.94482149,2.5 L59.0888893,2.5 Z" id="Rectangle-3" stroke="#6260E1" stroke-width="5" opacity="0.400000006"></path>
                    <rect id="Rectangle-12" fill="#6260E1" x="12.5556972" y="11.8891243" width="61.1440678" height="61.1440678" rx="1.10399016"></rect>
                    <g id="编组-19" transform="translate(16.377732, 25.361159)" fill="#FFFFFF">
                        <path d="M10.9749865,14.8070971 L42.4314474,14.8070971 C42.9801926,14.8070971 43.4250385,15.251943 43.4250385,15.8006882 L43.4250385,18.3993109 C43.4250385,18.9480561 42.9801926,19.392902 42.4314474,19.392902 L10.9749865,19.392902 C10.4262412,19.392902 9.98139535,18.9480561 9.98139535,18.3993109 L9.98139535,15.8006882 C9.98139535,15.251943 10.4262412,14.8070971 10.9749865,14.8070971 Z" id="Rectangle-13" transform="translate(26.703217, 17.100000) rotate(-270.000000) translate(-26.703217, -17.100000) "></path>
                        <g id="编组-17" transform="translate(13.085355, 17.135355) rotate(-315.000000) translate(-13.085355, -17.135355) translate(3.585355, 8.135355)">
                            <path d="M-4.40640874,6.29999983 L10.7064086,6.29999983 C11.2551538,6.29999983 11.6999997,6.74484573 11.6999997,7.29359095 L11.6999997,9.89221368 C11.6999997,10.4409589 11.2551538,10.8858048 10.7064086,10.8858048 L-4.40640874,10.8858048 C-4.95515396,10.8858048 -5.39999986,10.4409589 -5.39999986,9.89221368 L-5.39999986,7.29359095 C-5.39999986,6.74484573 -4.95515396,6.29999983 -4.40640874,6.29999983 Z" id="Rectangle-13备份" transform="translate(3.150000, 8.592902) rotate(-270.000000) translate(-3.150000, -8.592902) "></path>
                            <path d="M1.9654131,12.6718217 L17.0782304,12.6718217 C17.6269756,12.6718217 18.0718215,13.1166676 18.0718215,13.6654128 L18.0718215,16.2640355 C18.0718215,16.8127807 17.6269756,17.2576266 17.0782304,17.2576266 L1.9654131,17.2576266 C1.41666788,17.2576266 0.971821983,16.8127807 0.971821983,16.2640355 L0.971821983,13.6654128 C0.971821983,13.1166676 1.41666788,12.6718217 1.9654131,12.6718217 Z" id="Rectangle-13备份" transform="translate(9.521822, 14.964724) rotate(-180.000000) translate(-9.521822, -14.964724) "></path>
                        </g>
                        <g id="编组-17备份" transform="translate(39.890129, 17.135355) scale(-1, 1) rotate(-315.000000) translate(-39.890129, -17.135355) translate(30.390129, 8.135355)">
                            <path d="M-4.40640874,6.29999983 L10.7064086,6.29999983 C11.2551538,6.29999983 11.6999997,6.74484573 11.6999997,7.29359095 L11.6999997,9.89221368 C11.6999997,10.4409589 11.2551538,10.8858048 10.7064086,10.8858048 L-4.40640874,10.8858048 C-4.95515396,10.8858048 -5.39999986,10.4409589 -5.39999986,9.89221368 L-5.39999986,7.29359095 C-5.39999986,6.74484573 -4.95515396,6.29999983 -4.40640874,6.29999983 Z" id="Rectangle-13备份" transform="translate(3.150000, 8.592902) rotate(-270.000000) translate(-3.150000, -8.592902) "></path>
                            <path d="M1.9654131,12.6718217 L17.0782304,12.6718217 C17.6269756,12.6718217 18.0718215,13.1166676 18.0718215,13.6654128 L18.0718215,16.2640355 C18.0718215,16.8127807 17.6269756,17.2576266 17.0782304,17.2576266 L1.9654131,17.2576266 C1.41666788,17.2576266 0.971821983,16.8127807 0.971821983,16.2640355 L0.971821983,13.6654128 C0.971821983,13.1166676 1.41666788,12.6718217 1.9654131,12.6718217 Z" id="Rectangle-13备份" transform="translate(9.521822, 14.964724) rotate(-180.000000) translate(-9.521822, -14.964724) "></path>
                        </g>
                    </g>
                </g>
            </g>
        </g>
    </g>
</svg>