<?xml version="1.0" encoding="UTF-8"?>
<svg width="81px" height="80px" viewBox="0 0 81 80" version="1.1" xmlns="http://www.w3.org/2000/svg" xmlns:xlink="http://www.w3.org/1999/xlink">
    <title>编组 20</title>
    <g id="网站2-Vela主页" stroke="none" stroke-width="1" fill="none" fill-rule="evenodd">
        <g id="Vela-主页--1600" transform="translate(-762.000000, -3964.000000)">
            <g id="编组-20" transform="translate(762.500000, 3964.000000)">
                <g id="编组-8备份-2"></g>
                <g id="设计稿上传" transform="translate(40.000000, 40.000000) scale(-1, 1) translate(-40.000000, -40.000000) translate(1.500000, 3.500000)" fill-rule="nonzero">
                    <path d="M75.3729219,47.9847548 L32.2280008,47.9847548 C31.4707557,47.9847548 30.8570078,47.3707785 30.8570078,46.6137618 L30.8570078,1.370993 C30.8570078,0.613976362 31.4707557,0 32.2280008,0 L75.3729219,0 C76.1301669,0 76.7439148,0.613976362 76.7439148,1.370993 L76.7439148,46.6137618 C76.7439148,47.3707785 76.1301669,47.9847548 75.3729219,47.9847548" id="Fill-1" fill="#6260E1" opacity="0.200000003"></path>
                    <path d="M59.1682645,60.9699093 L16.339586,60.9699093 C15.5825693,60.9699093 14.9685929,60.3561614 14.9685929,59.5989163 L14.9685929,14.5846464 C14.9685929,13.8276297 15.5825693,13.2136533 16.339586,13.2136533 L59.1682645,13.2136533 C59.9252812,13.2136533 60.5392575,13.8276297 60.5392575,14.5846464 L60.5392575,59.5989163 C60.5392575,60.3561614 59.9252812,60.9699093 59.1682645,60.9699093" id="Fill-5" fill="#6260E1" opacity="0.600000024"></path>
                    <path d="M1.370993,72.8911275 C0.613976362,72.8911275 0,72.2771511 0,71.5201345 L0,28.8626015 C0,28.1055848 0.613976362,27.4916085 1.370993,27.4916085 L42.0437851,27.4916085 C42.8008018,27.4916085 43.4147781,28.1055848 43.4147781,28.8626015 L43.4147781,71.5201345 C43.4147781,72.2771511 42.8008018,72.8911275 42.0437851,72.8911275 L1.370993,72.8911275 Z" id="Fill-9" fill="#6260E1"></path>
                    <path d="M22.8440461,41.0201139 C22.8440461,45.7992643 18.9697491,49.6735613 14.1905987,49.6735613 C9.41144843,49.6735613 5.53715149,45.7992643 5.53715149,41.0201139 C5.53715149,36.2409636 9.41144843,32.3666667 14.1905987,32.3666667 C18.9697491,32.3666667 22.8440461,36.2409636 22.8440461,41.0201139" id="Fill-11" fill="#F7F7FC"></path>
                </g>
            </g>
        </g>
    </g>
</svg>