<?xml version="1.0" encoding="UTF-8"?>
<svg width="112px" height="112px" viewBox="0 0 112 112" version="1.1" xmlns="http://www.w3.org/2000/svg" xmlns:xlink="http://www.w3.org/1999/xlink">
    <title>编组 22</title>
    <defs>
        <circle id="path-1" cx="50" cy="50" r="50"></circle>
        <filter x="-10.0%" y="-5.0%" width="120.0%" height="120.0%" filterUnits="objectBoundingBox" id="filter-2">
            <feOffset dx="0" dy="5" in="SourceAlpha" result="shadowOffsetOuter1"></feOffset>
            <feGaussianBlur stdDeviation="2.5" in="shadowOffsetOuter1" result="shadowBlurOuter1"></feGaussianBlur>
            <feComposite in="shadowBlurOuter1" in2="SourceAlpha" operator="out" result="shadowBlurOuter1"></feComposite>
            <feColorMatrix values="0 0 0 0 0.980392157   0 0 0 0 0.549019608   0 0 0 0 0.0862745098  0 0 0 0.15 0" type="matrix" in="shadowBlurOuter1"></feColorMatrix>
        </filter>
    </defs>
    <g id="网站2-Vela主页" stroke="none" stroke-width="1" fill="none" fill-rule="evenodd">
        <g id="Vela-主页--1600" transform="translate(-252.000000, -779.000000)">
            <g id="编组-22" transform="translate(252.000000, 779.000000)">
                <rect id="矩形" opacity="0.100000001" x="0" y="0" width="112" height="112"></rect>
                <g id="编组-2" transform="translate(6.000000, 0.000000)">
                    <g id="椭圆形">
                        <use fill="black" fill-opacity="1" filter="url(#filter-2)" xlink:href="#path-1"></use>
                        <circle stroke="#F9F9F9" stroke-width="1" stroke-linejoin="square" fill="#FFFFFF" fill-rule="evenodd" cx="50" cy="50" r="49.5"></circle>
                    </g>
                    <g id="img" transform="translate(31.000000, 28.500000)" fill="#FA8C16" fill-rule="nonzero">
                        <path d="M40.9671437,8.07010051 L40.741742,7.1209366 L39.7915187,6.89137139 C39.2479026,6.75892991 38.2623222,6.60441487 36.6270544,6.60441487 C33.5333043,6.60441487 29.6484381,7.16949848 26.2453131,8.11424766 C24.3802238,8.63076942 22.7140183,9.2400002 21.295313,9.92428115 C19.8279915,10.6306357 18.6302682,11.4296992 17.8258932,12.2331775 C17.0922326,12.9660203 16.13317,14.4184619 14.9708039,16.5507695 C14.7012057,17.0452178 14.4227682,17.5749836 14.1354914,18.1400672 C11.7798217,18.8111041 8.97776805,20.4666226 7.79330375,21.2127095 C5.10616083,22.8947162 2.92727684,24.6561878 1.97263396,25.9187965 C1.67209826,26.316121 1.57486611,26.8326428 1.71187504,27.3138468 C1.84888396,27.7950507 2.20245541,28.1835458 2.67093756,28.3601344 C2.96705364,28.474917 3.28968757,28.5941144 3.63000008,28.7265557 C5.17687511,29.313713 7.06848229,30.0244822 8.53580376,30.7440809 L8.53138411,30.7529104 L17.0436165,39.2644824 C17.7640182,40.7345828 18.4844201,42.6373254 19.0766521,44.1957201 C19.2048218,44.5356531 19.3285718,44.8579274 19.4434826,45.1537134 C19.6246879,45.6216732 20.0091968,45.9748506 20.4909379,46.1117067 C20.6367862,46.1514392 20.7826344,46.1735127 20.9284826,46.1735127 C21.2687952,46.1735127 21.6091077,46.0631449 21.8875452,45.8512385 C23.151563,44.8976598 24.9150005,42.7212049 26.5988845,40.0370577 C27.3413845,38.8494992 28.9987506,36.0593988 29.6793756,33.7019406 C30.2539293,33.4105692 30.7975454,33.1280275 31.3013846,32.8543151 C33.449331,31.6888302 34.9033936,30.7264221 35.628215,29.9935792 C37.7054472,27.9186628 39.5440187,23.4642146 40.5516973,18.0782612 C40.989242,15.7296325 41.236742,13.3412712 41.2455812,11.3546491 C41.2588401,9.66381292 41.1041526,8.63518414 40.9671437,8.07010051 L40.9671437,8.07010051 Z" id="Shape" fill-opacity="0.3"></path>
                        <path d="M39.3171437,1.47010037 L39.0917419,0.520936467 L38.1415186,0.291371244 C37.5979025,0.158929769 36.6123222,0.00441471581 34.9770544,0.00441471581 C31.8833043,0.00441471581 27.9984381,0.569498341 24.595313,1.51424753 C22.7302238,2.03076927 21.0640183,2.64000006 19.6453129,3.32428101 C18.1779915,4.03063553 16.9802682,4.8296991 16.1758932,5.63317738 C15.4422325,6.3660202 14.48317,7.81846171 13.3208039,9.95076945 C13.0512056,10.4452176 12.7727681,10.9749835 12.4854913,11.5400671 C10.1298216,12.2111039 7.32776802,13.8666224 6.14330371,14.6127093 C3.45616079,16.2947161 1.27727681,18.0561877 0.322633935,19.3187964 C0.0220982147,19.7161209 -0.0751339302,20.2326426 0.0618750013,20.7138467 C0.198883932,21.1950505 0.55245537,21.5835457 1.02093752,21.7601343 C1.3170536,21.8749169 1.63968754,21.9941142 1.98000004,22.1265556 C3.52687508,22.7137129 5.41848226,23.4244821 6.88580373,24.1440808 L6.88138407,24.1529102 L15.3936164,32.6644823 C16.1140182,34.1345826 16.8344201,36.0373252 17.4266521,37.5957199 C17.5548218,37.9356529 17.6785718,38.2579273 17.7934826,38.5537132 C17.9746879,39.021673 18.3591968,39.3748504 18.8409379,39.5117066 C18.9867862,39.551439 19.1326343,39.5735126 19.2784826,39.5735126 C19.6187951,39.5735126 19.9591076,39.4631447 20.2375451,39.2512384 C21.501563,38.2976596 23.2650005,36.1212048 24.9488844,33.4370575 C25.6913845,32.249499 27.3487506,29.4593986 28.0293756,27.1019405 C28.6039292,26.8105691 29.1475453,26.5280274 29.6513845,26.254315 C31.799331,25.08883 33.2533935,24.126422 33.978215,23.3935791 C36.0554472,21.3186626 37.8940186,16.8642144 38.9016972,11.4782611 C39.3392419,9.12963231 39.586742,6.74127105 39.5955812,4.75464893 C39.6088401,3.06381278 39.4541526,2.035184 39.3171437,1.47010037 L39.3171437,1.47010037 Z M10.1121431,16.5375255 C9.35638412,18.2195322 8.66691983,19.8353182 8.09678589,21.1950505 C6.97419657,20.6564552 5.69250012,20.1443483 4.4859376,19.6763884 C5.33892869,18.9788632 6.47035728,18.1577262 7.83602695,17.305686 C8.72879483,16.7450171 9.61272343,16.2417395 10.4391966,15.8223415 C10.3287056,16.0563214 10.2182145,16.2947161 10.1121431,16.5375255 Z M22.2529022,31.7462215 C21.3999112,33.1059538 20.5778576,34.2361212 19.879554,35.092576 C19.4154915,33.8917733 18.8983932,32.6115057 18.3636165,31.4901679 C19.7292862,30.9206695 21.3512952,30.2275591 23.0528577,29.4638134 C23.2826791,29.3578601 23.5125005,29.2563217 23.7379022,29.1547832 C23.3136166,29.9759204 22.8097772,30.8544489 22.2529022,31.7462215 L22.2529022,31.7462215 Z M36.417858,4.73257535 C36.4090186,6.53819413 36.1836169,8.72347845 35.7770097,10.8911039 C35.3350455,13.2485622 34.7074561,15.4691642 33.9561168,17.3233449 C33.2578132,19.0494987 32.4666971,20.4092313 31.7286168,21.142074 L31.7197774,21.1509035 C31.5429918,21.3319068 30.7562954,22.029432 28.1310273,23.4553851 C26.4162059,24.3824754 24.2682594,25.428763 21.7402238,26.5677597 C19.6541521,27.5036795 17.6829915,28.3336462 16.1803129,28.9561211 L10.6292413,23.3935791 C11.2479913,21.8881609 12.0833038,19.914783 13.0158485,17.8398666 C14.160536,15.301405 15.2079914,13.1558531 16.1272771,11.4606023 C17.5459826,8.85591992 18.2531254,8.05685636 18.4343307,7.87585302 C18.9779468,7.33284297 19.9016521,6.73244162 21.0375005,6.18501685 C22.2838397,5.5846155 23.7688397,5.04160545 25.4527238,4.5780603 C28.5950898,3.69953186 32.1573221,3.17859538 34.981474,3.17859538 C35.551608,3.17859538 36.0068311,3.20066896 36.3692419,3.23157198 C36.4001794,3.62006696 36.4222775,4.11451513 36.417858,4.73257535 Z M5.35660726,30.3644154 C3.62852686,30.3644154 2.17004469,31.5078268 1.6971429,33.0838803 L0.0353571436,38.5669573 C0.0132589289,38.6375928 0,38.712643 0,38.7876931 C0,39.2115059 0.340312507,39.5558536 0.764598231,39.5558536 C0.844151804,39.5558536 0.914866092,39.5426096 0.985580379,39.520536 L6.46593764,37.8561881 C8.03491089,37.3793988 9.17959842,35.9181279 9.17959842,34.1919739 C9.17959842,32.0773252 7.46919658,30.3644154 5.35660726,30.3644154 Z" id="Shape"></path>
                        <path d="M23.4567508,16.1250959 C24.1713308,16.8388544 25.2128409,17.1175957 26.1889539,16.8563203 C27.1650668,16.595045 27.9274883,15.8334471 28.189021,14.8584131 C28.450554,13.8833792 28.1714654,12.8430401 27.4568852,12.1292815 C26.742305,11.4155229 25.7007951,11.1367817 24.7246821,11.3980571 C23.748569,11.6593324 22.9861477,12.4209303 22.7246148,13.3959643 C22.463082,14.3709982 22.7421706,15.4113373 23.4567508,16.1250959 Z" id="Shape"></path>
                    </g>
                </g>
            </g>
        </g>
    </g>
</svg>