<?xml version="1.0" encoding="UTF-8"?>
<svg width="112px" height="112px" viewBox="0 0 112 112" version="1.1" xmlns="http://www.w3.org/2000/svg" xmlns:xlink="http://www.w3.org/1999/xlink">
    <title>编组 23</title>
    <defs>
        <circle id="path-1" cx="50" cy="50" r="50"></circle>
        <filter x="-10.0%" y="-5.0%" width="120.0%" height="120.0%" filterUnits="objectBoundingBox" id="filter-2">
            <feOffset dx="0" dy="5" in="SourceAlpha" result="shadowOffsetOuter1"></feOffset>
            <feGaussianBlur stdDeviation="2.5" in="shadowOffsetOuter1" result="shadowBlurOuter1"></feGaussianBlur>
            <feComposite in="shadowBlurOuter1" in2="SourceAlpha" operator="out" result="shadowBlurOuter1"></feComposite>
            <feColorMatrix values="0 0 0 0 0.0941176471   0 0 0 0 0.564705882   0 0 0 0 1  0 0 0 0.15 0" type="matrix" in="shadowBlurOuter1"></feColorMatrix>
        </filter>
    </defs>
    <g id="网站2-Vela主页" stroke="none" stroke-width="1" fill="none" fill-rule="evenodd">
        <g id="Vela-主页--1600" transform="translate(-581.000000, -779.000000)">
            <g id="编组-23" transform="translate(581.000000, 779.000000)">
                <rect id="矩形备份-22" opacity="0.100000001" x="0" y="0" width="112" height="112"></rect>
                <g id="编组-3" transform="translate(6.000000, 0.000000)">
                    <g id="椭圆形备份">
                        <use fill="black" fill-opacity="1" filter="url(#filter-2)" xlink:href="#path-1"></use>
                        <circle stroke="#F9F9F9" stroke-width="1" stroke-linejoin="square" fill="#FFFFFF" fill-rule="evenodd" cx="50" cy="50" r="49.5"></circle>
                    </g>
                    <g id="img" transform="translate(29.000000, 31.000000)">
                        <path d="M43.1428572,6 C44.71875,6 46,7.30046874 46,8.9 L46,32.1 C46,33.6995313 44.71875,35 43.1428572,35 L8.85714285,35 C7.28125,35 6,33.6995313 6,32.1 L6,8.9 C6,7.30046874 7.28125,6 8.85714285,6 L43.1428572,6 Z M44.5714285,38 C45.3616072,38 46,38.6703125 46,39.5 C46,40.3296875 45.3616072,41 44.5714285,41 L7.42857143,41 C6.63839285,41 6,40.3296875 6,39.5 C6,38.6703125 6.63839285,38 7.42857143,38 L44.5714285,38 Z" id="Combined-Shape" fill-opacity="0.4" fill="#32C8CF" fill-rule="nonzero"></path>
                        <path d="M3,26 L37,26 L37,3 L3,3 L3,26 Z M13.4030801,14.4436154 C13.9042894,13.9968761 14.6757157,14.0359116 15.1246249,14.5346982 L18.2234053,17.9611454 L26.8747124,8.40179127 C27.3236217,7.90300465 28.0994063,7.86396916 28.5962572,8.31070848 C29.0974665,8.75744782 29.1366915,9.52948278 28.6877823,10.0239321 L19.125582,20.5982088 C18.6766729,21.0969954 17.9008882,21.1360309 17.4040373,20.6892914 C17.3255871,20.619895 17.2558537,20.5374868 17.1991953,20.4550786 L13.3159133,16.1611763 C12.8626459,15.6623897 12.9018709,14.894692 13.4030801,14.4436154 Z" id="Shape"></path>
                        <path d="M37.1428572,0 L2.85714285,0 C1.28125,0 3.55271368e-15,1.30046875 3.55271368e-15,2.9 L3.55271368e-15,26.1 C3.55271368e-15,27.6995313 1.28125,29 2.85714285,29 L37.1428572,29 C38.71875,29 40,27.6995313 40,26.1 L40,2.9 C40,1.30046875 38.71875,0 37.1428572,0 Z M37,26 L3,26 L3,3 L37,3 L37,26 Z" id="Shape" fill="#32C8CF" fill-rule="nonzero"></path>
                        <path d="M38.5714285,32 L1.42857143,32 C0.638392857,32 3.55271368e-15,32.6703125 3.55271368e-15,33.5 C3.55271368e-15,34.3296875 0.638392857,35 1.42857143,35 L38.5714285,35 C39.3616072,35 40,34.3296875 40,33.5 C40,32.6703125 39.3616072,32 38.5714285,32 Z" id="Shape" fill="#32C8CF" fill-rule="nonzero"></path>
                        <path d="M17.1953259,21.4131616 C17.2519819,21.5065799 17.3173543,21.5906562 17.4001593,21.6653908 C17.9013478,22.1464948 18.6727423,22.1044565 19.1216327,21.5673017 L28.6877953,10.1796192 C29.1366859,9.64246439 29.0974624,8.81571304 28.5962739,8.33460915 C28.0950855,7.85350525 27.3236911,7.89554346 26.8748005,8.43269829 L18.2238517,18.7273875 L15.1251995,15.0373673 C14.6763089,14.5002124 13.9005564,14.4581742 13.403726,14.9392781 C12.9025376,15.420382 12.8633141,16.2518043 13.3122047,16.7842882 L17.1953259,21.4131616 Z" id="Shape" fill="#32C8CF" fill-rule="nonzero"></path>
                    </g>
                </g>
            </g>
        </g>
    </g>
</svg>