<?xml version="1.0" encoding="UTF-8"?>
<svg width="112px" height="112px" viewBox="0 0 112 112" version="1.1" xmlns="http://www.w3.org/2000/svg" xmlns:xlink="http://www.w3.org/1999/xlink">
    <title>编组 24</title>
    <defs>
        <circle id="path-1" cx="50" cy="50" r="50"></circle>
        <filter x="-10.0%" y="-5.0%" width="120.0%" height="120.0%" filterUnits="objectBoundingBox" id="filter-2">
            <feOffset dx="0" dy="5" in="SourceAlpha" result="shadowOffsetOuter1"></feOffset>
            <feGaussianBlur stdDeviation="2.5" in="shadowOffsetOuter1" result="shadowBlurOuter1"></feGaussianBlur>
            <feComposite in="shadowBlurOuter1" in2="SourceAlpha" operator="out" result="shadowBlurOuter1"></feComposite>
            <feColorMatrix values="0 0 0 0 0.921568627   0 0 0 0 0.184313725   0 0 0 0 0.588235294  0 0 0 0.15 0" type="matrix" in="shadowBlurOuter1"></feColorMatrix>
        </filter>
    </defs>
    <g id="网站2-Vela主页" stroke="none" stroke-width="1" fill="none" fill-rule="evenodd">
        <g id="Vela-主页--1600" transform="translate(-907.000000, -779.000000)">
            <g id="编组-24" transform="translate(907.000000, 779.000000)">
                <rect id="矩形备份-23" opacity="0.100000001" x="0" y="0" width="112" height="112"></rect>
                <g id="编组-4" transform="translate(6.000000, 0.000000)">
                    <g id="椭圆形备份-2">
                        <use fill="black" fill-opacity="1" filter="url(#filter-2)" xlink:href="#path-1"></use>
                        <circle stroke="#F9F9F9" stroke-width="1" stroke-linejoin="square" fill="#FFFFFF" fill-rule="evenodd" cx="50" cy="50" r="49.5"></circle>
                    </g>
                    <g id="img" transform="translate(31.000000, 26.000000)">
                        <path d="M35.2000007,4.95000011 L7.70000017,4.95000011 C6.18320325,4.95000011 4.95000011,6.15237318 4.95000011,7.63125017 L4.95000011,45.168751 C4.95000011,46.647628 6.18320325,47.850001 7.70000017,47.850001 L35.2000007,47.850001 C36.7167977,47.850001 37.9500001,46.647628 37.9500001,45.168751 L37.9500001,7.63125017 C37.9500001,6.15237318 36.7167977,4.95000011 35.2000007,4.95000011 Z" id="Shape" fill-opacity="0.4" fill="#CD2FEB" fill-rule="nonzero"></path>
                        <circle id="Oval" cx="8.25000018" cy="21.4500005" r="1.65000004"></circle>
                        <path d="M2.75000007,26.9381842 L30.2500001,26.9381842 L30.2500001,16.0037113 L2.75000007,16.0037113 L2.75000007,26.9381842 Z M8.25000018,18.7687504 C9.76679708,18.7687504 11.0000001,19.9711234 11.0000001,21.4500005 C11.0000001,22.9288775 9.76679708,24.1312505 8.25000018,24.1312505 C6.73320328,24.1312505 5.50000011,22.9288775 5.50000011,21.4500005 C5.50000011,19.9711234 6.73320328,18.7687504 8.25000018,18.7687504 Z" id="Shape"></path>
                        <path d="M2.75000007,40.2187509 L30.2500001,40.2187509 L30.2500001,29.284278 L2.75000007,29.284278 L2.75000007,40.2187509 Z M8.25000018,32.1750007 C9.76679708,32.1750007 11.0000001,33.3773737 11.0000001,34.8562508 C11.0000001,36.3351278 9.76679708,37.5375008 8.25000018,37.5375008 C6.73320328,37.5375008 5.50000011,36.3351278 5.50000011,34.8562508 C5.50000011,33.3773737 6.73320328,32.1750007 8.25000018,32.1750007 Z" id="Shape"></path>
                        <circle id="Oval" cx="8.25000018" cy="34.8562508" r="1.65000004"></circle>
                        <path d="M2.75000007,13.6576175 L30.2500001,13.6576175 L30.2500001,2.68125006 L2.75000007,2.68125006 L2.75000007,13.6576175 Z M8.25000018,5.36250012 C9.76679708,5.36250012 11.0000001,6.56487319 11.0000001,8.04375017 C11.0000001,9.52262716 9.76679708,10.7250002 8.25000018,10.7250002 C6.73320328,10.7250002 5.50000011,9.52262716 5.50000011,8.04375017 C5.50000011,6.56487319 6.73320328,5.36250012 8.25000018,5.36250012 Z" id="Shape"></path>
                        <circle id="Oval" cx="8.25000018" cy="8.04375017" r="1.65000004"></circle>
                        <path d="M30.2500006,0 L2.75000007,0 C1.23320315,0 0,1.20237307 0,2.68125006 L0,40.2187509 C0,41.6976279 1.23320315,42.9000009 2.75000007,42.9000009 L30.2500006,42.9000009 C31.7667976,42.9000009 33,41.6976279 33,40.2187509 L33,2.68125006 C33,1.20237307 31.7667976,0 30.2500006,0 Z M30.2500001,40.2187509 L2.75000007,40.2187509 L2.75000007,29.284278 L30.2500001,29.284278 L30.2500001,40.2187509 Z M30.2500001,26.9381842 L2.75000007,26.9381842 L2.75000007,16.0037113 L30.2500001,16.0037113 L30.2500001,26.9381842 Z M30.2500001,13.6576175 L2.75000007,13.6576175 L2.75000007,2.68125006 L30.2500001,2.68125006 L30.2500001,13.6576175 Z" id="Shape" fill="#CD2FEB" fill-rule="nonzero"></path>
                        <path d="M8.25000018,10.7250002 C9.76679708,10.7250002 11.0000001,9.52262716 11.0000001,8.04375017 C11.0000001,6.56487319 9.76679708,5.36250012 8.25000018,5.36250012 C6.73320328,5.36250012 5.50000011,6.56487319 5.50000011,8.04375017 C5.50000011,9.52262716 6.73320328,10.7250002 8.25000018,10.7250002 Z M8.25000018,7.0382814 C8.82148457,7.0382814 9.2812502,7.4865529 9.2812502,8.04375017 C9.2812502,8.60094745 8.82148457,9.04921895 8.25000018,9.04921895 C7.67851579,9.04921895 7.21875016,8.60094745 7.21875016,8.04375017 C7.21875016,7.4865529 7.67851579,7.0382814 8.25000018,7.0382814 Z" id="Shape" fill="#CD2FEB" fill-rule="nonzero"></path>
                        <path d="M8.25000018,24.1312505 C9.76679708,24.1312505 11.0000001,22.9288775 11.0000001,21.4500005 C11.0000001,19.9711234 9.76679708,18.7687504 8.25000018,18.7687504 C6.73320328,18.7687504 5.50000011,19.9711234 5.50000011,21.4500005 C5.50000011,22.9288775 6.73320328,24.1312505 8.25000018,24.1312505 Z M8.25000018,20.4445317 C8.82148457,20.4445317 9.2812502,20.8928032 9.2812502,21.4500005 C9.2812502,22.0071977 8.82148457,22.4554692 8.25000018,22.4554692 C7.67851579,22.4554692 7.21875016,22.0071977 7.21875016,21.4500005 C7.21875016,20.8928032 7.67851579,20.4445317 8.25000018,20.4445317 Z" id="Shape" fill="#CD2FEB" fill-rule="nonzero"></path>
                        <path d="M8.25000018,37.5375008 C9.76679708,37.5375008 11.0000001,36.3351278 11.0000001,34.8562508 C11.0000001,33.3773737 9.76679708,32.1750007 8.25000018,32.1750007 C6.73320328,32.1750007 5.50000011,33.3773737 5.50000011,34.8562508 C5.50000011,36.3351278 6.73320328,37.5375008 8.25000018,37.5375008 Z M8.25000018,33.850782 C8.82148457,33.850782 9.2812502,34.2990535 9.2812502,34.8562508 C9.2812502,35.413448 8.82148457,35.8617195 8.25000018,35.8617195 C7.67851579,35.8617195 7.21875016,35.413448 7.21875016,34.8562508 C7.21875016,34.2990535 7.67851579,33.850782 8.25000018,33.850782 Z" id="Shape" fill="#CD2FEB" fill-rule="nonzero"></path>
                    </g>
                </g>
            </g>
        </g>
    </g>
</svg>