<?xml version="1.0" encoding="UTF-8"?>
<svg width="112px" height="112px" viewBox="0 0 112 112" version="1.1" xmlns="http://www.w3.org/2000/svg" xmlns:xlink="http://www.w3.org/1999/xlink">
    <title>编组 25</title>
    <defs>
        <circle id="path-1" cx="50" cy="50" r="50"></circle>
        <filter x="-10.0%" y="-5.0%" width="120.0%" height="120.0%" filterUnits="objectBoundingBox" id="filter-2">
            <feOffset dx="0" dy="5" in="SourceAlpha" result="shadowOffsetOuter1"></feOffset>
            <feGaussianBlur stdDeviation="2.5" in="shadowOffsetOuter1" result="shadowBlurOuter1"></feGaussianBlur>
            <feComposite in="shadowBlurOuter1" in2="SourceAlpha" operator="out" result="shadowBlurOuter1"></feComposite>
            <feColorMatrix values="0 0 0 0 0.184313725   0 0 0 0 0.329411765   0 0 0 0 0.921568627  0 0 0 0.15 0" type="matrix" in="shadowBlurOuter1"></feColorMatrix>
        </filter>
    </defs>
    <g id="网站2-Vela主页" stroke="none" stroke-width="1" fill="none" fill-rule="evenodd">
        <g id="Vela-主页--1600" transform="translate(-1233.000000, -779.000000)">
            <g id="编组-25" transform="translate(1233.000000, 779.000000)">
                <rect id="矩形备份-24" opacity="0.100000001" x="0" y="0" width="112" height="112"></rect>
                <g id="编组-5" transform="translate(6.000000, 0.000000)">
                    <g id="椭圆形备份-3">
                        <use fill="black" fill-opacity="1" filter="url(#filter-2)" xlink:href="#path-1"></use>
                        <circle stroke="#F9F9F9" stroke-width="1" stroke-linejoin="square" fill="#FFFFFF" fill-rule="evenodd" cx="50" cy="50" r="49.5"></circle>
                    </g>
                    <g id="img" transform="translate(31.500000, 31.500000)">
                        <path d="M18.7098218,4.12500009 C19.9616857,4.12500009 20.9785719,5.14188627 20.9785719,6.39375014 L20.9785719,21.3026791 C20.9785719,22.5545428 19.9616857,23.5714291 18.7098218,23.5714291 L6.39375014,23.5714291 C5.14188627,23.5714291 4.12500009,22.5545428 4.12500009,21.3026791 L4.12500009,6.39375014 C4.12500009,5.14188627 5.14188627,4.12500009 6.39375014,4.12500009 L18.7098218,4.12500009 Z M18.7098218,26.1642864 C19.9616857,26.1642864 20.9785719,27.1811725 20.9785719,28.4330364 L20.9785719,38.1562508 C20.9785719,39.4081148 19.9616857,40.4250009 18.7098218,40.4250009 L6.39375014,40.4250009 C5.14188627,40.4250009 4.12500009,39.4081148 4.12500009,38.1562508 L4.12500009,28.4330364 C4.12500009,27.1811725 5.14188627,26.1642864 6.39375014,26.1642864 L18.7098218,26.1642864 Z M38.1562508,4.12500009 C39.4081148,4.12500009 40.4250009,5.14188627 40.4250009,6.39375014 L40.4250009,16.1169646 C40.4250009,17.3688285 39.4081148,18.3857146 38.1562508,18.3857146 L25.8401792,18.3857146 C24.5883152,18.3857146 23.5714291,17.3688285 23.5714291,16.1169646 L23.5714291,6.39375014 C23.5714291,5.14188627 24.5883152,4.12500009 25.8401792,4.12500009 L38.1562508,4.12500009 Z M38.1562508,20.9785719 C39.4081148,20.9785719 40.4250009,21.9954581 40.4250009,23.2473219 L40.4250009,38.1562508 C40.4250009,39.4081148 39.4081148,40.4250009 38.1562508,40.4250009 L25.8401792,40.4250009 C24.5883152,40.4250009 23.5714291,39.4081148 23.5714291,38.1562508 L23.5714291,23.2473219 C23.5714291,21.9954581 24.5883152,20.9785719 25.8401792,20.9785719 L38.1562508,20.9785719 Z" id="Combined-Shape" fill-opacity="0.4" fill="#2F54EB" fill-rule="nonzero"></path>
                        <rect id="Rectangle-path" x="21.7151791" y="19.1223218" width="12.3160717" height="14.9089289"></rect>
                        <rect id="Rectangle-path" x="2.26875005" y="24.3080363" width="12.3160717" height="9.72321449"></rect>
                        <rect id="Rectangle-path" x="2.26875005" y="2.26875005" width="12.3160717" height="14.9089289"></rect>
                        <rect id="Rectangle-path" x="21.7151791" y="2.26875005" width="12.3160717" height="9.72321449"></rect>
                        <path d="M14.5848217,0 L2.26875005,0 C1.01688618,0 0,1.01688618 0,2.26875005 L0,17.177679 C0,18.4295427 1.01688618,19.446429 2.26875005,19.446429 L14.5848217,19.446429 C15.8366856,19.446429 16.8535718,18.4295427 16.8535718,17.177679 L16.8535718,2.26875005 C16.8535718,1.01688618 15.8366856,0 14.5848217,0 Z M14.5848217,17.177679 L2.26875005,17.177679 L2.26875005,2.26875005 L14.5848217,2.26875005 L14.5848217,17.177679 Z" id="Shape" fill="#2F54EB" fill-rule="nonzero"></path>
                        <path d="M14.5848217,22.0392863 L2.26875005,22.0392863 C1.01688618,22.0392863 0,23.0561724 0,24.3080363 L0,34.0312507 C0,35.2831147 1.01688618,36.3000008 2.26875005,36.3000008 L14.5848217,36.3000008 C15.8366856,36.3000008 16.8535718,35.2831147 16.8535718,34.0312507 L16.8535718,24.3080363 C16.8535718,23.0561724 15.8366856,22.0392863 14.5848217,22.0392863 Z M14.5848217,34.0312507 L2.26875005,34.0312507 L2.26875005,24.3080363 L14.5848217,24.3080363 L14.5848217,34.0312507 Z" id="Shape" fill="#2F54EB" fill-rule="nonzero"></path>
                        <path d="M34.0312507,0 L21.7151791,0 C20.4633151,0 19.446429,1.01688618 19.446429,2.26875005 L19.446429,11.9919645 C19.446429,13.2438284 20.4633151,14.2607146 21.7151791,14.2607146 L34.0312507,14.2607146 C35.2831147,14.2607146 36.3000008,13.2438284 36.3000008,11.9919645 L36.3000008,2.26875005 C36.3000008,1.01688618 35.2831147,0 34.0312507,0 Z M34.0312507,11.9919645 L21.7151791,11.9919645 L21.7151791,2.26875005 L34.0312507,2.26875005 L34.0312507,11.9919645 Z" id="Shape" fill="#2F54EB" fill-rule="nonzero"></path>
                        <path d="M34.0312507,16.8535718 L21.7151791,16.8535718 C20.4633151,16.8535718 19.446429,17.870458 19.446429,19.1223218 L19.446429,34.0312507 C19.446429,35.2831147 20.4633151,36.3000008 21.7151791,36.3000008 L34.0312507,36.3000008 C35.2831147,36.3000008 36.3000008,35.2831147 36.3000008,34.0312507 L36.3000008,19.1223218 C36.3000008,17.870458 35.2831147,16.8535718 34.0312507,16.8535718 Z M34.0312507,34.0312507 L21.7151791,34.0312507 L21.7151791,19.1223218 L34.0312507,19.1223218 L34.0312507,34.0312507 Z" id="Shape" fill="#2F54EB" fill-rule="nonzero"></path>
                    </g>
                </g>
            </g>
        </g>
    </g>
</svg>